<svg version="1.1" xmlns="http://www.w3.org/2000/svg" viewBox="0 0 3455.468856854013 878.0010986328125" width="3455.468856854013" height="878.0010986328125">
  <!-- svg-source:excalidraw -->
  
  <defs>
    <style class="style-fonts">
      @font-face {
        font-family: "Virgil";
        src: url("https://excalidraw.com/Virgil.woff2");
      }
      @font-face {
        font-family: "Cascadia";
        src: url("https://excalidraw.com/Cascadia.woff2");
      }
    </style>
    
  </defs>
  <rect x="0" y="0" width="3455.468856854013" height="878.0010986328125" fill="#ffffff"></rect><g stroke-linecap="round" transform="translate(382.9488525390625 741.6090424347261) rotate(0 83.19769287109375 26.32623291015625)"><path d="M13.16 0 C64.66 -1.48, 116.17 -1.41, 153.23 0 M13.16 0 C68.24 0.81, 122.44 0.74, 153.23 0 M153.23 0 C161.19 -0.15, 164.75 2.63, 166.4 13.16 M153.23 0 C163.47 -0.09, 166.77 2.47, 166.4 13.16 M166.4 13.16 C167.24 17.4, 165.99 24.62, 166.4 39.49 M166.4 13.16 C167.39 21.27, 166.11 27.4, 166.4 39.49 M166.4 39.49 C166.84 48.26, 163.07 54.37, 153.23 52.65 M166.4 39.49 C165.39 48, 162.21 53.76, 153.23 52.65 M153.23 52.65 C117.31 54.62, 78.5 51.99, 13.16 52.65 M153.23 52.65 C108.89 53.35, 65.48 52.8, 13.16 52.65 M13.16 52.65 C2.52 50.94, 0.95 47.14, 0 39.49 M13.16 52.65 C2.72 50.39, 1.63 49.59, 0 39.49 M0 39.49 C0.24 33.04, 0.46 26.97, 0 13.16 M0 39.49 C0.36 30.88, -0.92 23.26, 0 13.16 M0 13.16 C1.33 4.58, 3.12 -0.17, 13.16 0 M0 13.16 C-0.21 5.02, 6.51 1.75, 13.16 0" stroke="#1e1e1e" stroke-width="2" fill="none"></path></g><g transform="translate(443.8065643310547 755.4352753448824) rotate(0 22.339981079101562 12.5)"><text x="22.339981079101562" y="0" font-family="Virgil, Segoe UI Emoji" font-size="20px" fill="#1e1e1e" text-anchor="middle" style="white-space: pre;" direction="ltr" dominant-baseline="text-before-edge">User</text></g><g stroke-linecap="round" transform="translate(64.8922119140625 382.75143745425737) rotate(0 86.62518310546875 41.50872802734375)"><path d="M20.75 0 C65.94 0.62, 116.31 -4.04, 152.5 0 C166.44 -2.81, 169.74 4.38, 173.25 20.75 C171.27 28.03, 171.1 37.45, 173.25 62.26 C174.19 78.54, 163.15 86.46, 152.5 83.02 C103.99 86.56, 52.16 80.57, 20.75 83.02 C6.1 83.71, 0.2 73.51, 0 62.26 C3.16 50.67, -2.64 38.98, 0 20.75 C3.26 8.54, 9.65 1.64, 20.75 0" stroke="none" stroke-width="0" fill="#ffec99"></path><path d="M20.75 0 C54.68 0.22, 86.98 1.09, 152.5 0 M20.75 0 C48.34 -0.51, 74.8 0.61, 152.5 0 M152.5 0 C167.36 1.11, 173.25 5.13, 173.25 20.75 M152.5 0 C167.73 -0.34, 175.5 8.32, 173.25 20.75 M173.25 20.75 C172.53 35.92, 172.3 48.81, 173.25 62.26 M173.25 20.75 C173.75 34.79, 172.89 50.43, 173.25 62.26 M173.25 62.26 C171.81 74.71, 164.67 81.36, 152.5 83.02 M173.25 62.26 C173.37 74.35, 167.18 83.7, 152.5 83.02 M152.5 83.02 C111.76 82.77, 71.55 80.85, 20.75 83.02 M152.5 83.02 C126.36 84.6, 98.49 83.94, 20.75 83.02 M20.75 83.02 C7.28 82.35, 0.3 75.07, 0 62.26 M20.75 83.02 C5.11 83.51, 1.16 74.27, 0 62.26 M0 62.26 C0.69 49.9, 0.28 35.1, 0 20.75 M0 62.26 C-0.66 53.62, 0.97 44.28, 0 20.75 M0 20.75 C-1.19 7.17, 7.75 1.78, 20.75 0 M0 20.75 C-0.44 8.07, 5.35 -1.2, 20.75 0" stroke="#1e1e1e" stroke-width="2" fill="none"></path></g><g transform="translate(110.00743865966797 411.7601654816011) rotate(0 41.50995635986328 12.5)"><text x="41.50995635986328" y="0" font-family="Virgil, Segoe UI Emoji" font-size="20px" fill="#1e1e1e" text-anchor="middle" style="white-space: pre;" direction="ltr" dominant-baseline="text-before-edge">Servidor1</text></g><g stroke-linecap="round" transform="translate(278.36444091796875 378.93771675113237) rotate(0 86.62518310546875 41.50872802734375)"><path d="M20.75 0 C60.83 3.71, 102.51 -1.82, 152.5 0 C168.92 -1.45, 169.93 7.6, 173.25 20.75 C171.04 31.29, 170.01 38.56, 173.25 62.26 C176.47 74.37, 169.02 86.21, 152.5 83.02 C123.5 85.2, 96 83.63, 20.75 83.02 C10.01 82.15, -2.65 76, 0 62.26 C3.45 45.42, -1.83 32.55, 0 20.75 C-1.95 9.87, 8.06 2.79, 20.75 0" stroke="none" stroke-width="0" fill="#ffec99"></path><path d="M20.75 0 C62.06 0.37, 98.45 -1.54, 152.5 0 M20.75 0 C62.9 0.21, 104.95 1.67, 152.5 0 M152.5 0 C166.97 -1.77, 174.48 8.73, 173.25 20.75 M152.5 0 C167.37 1.75, 174.3 6.17, 173.25 20.75 M173.25 20.75 C173.94 37.58, 171.59 53.57, 173.25 62.26 M173.25 20.75 C173.64 34.83, 174.2 49.04, 173.25 62.26 M173.25 62.26 C173.14 77.24, 165.85 83.45, 152.5 83.02 M173.25 62.26 C173.1 78.2, 166.43 82.35, 152.5 83.02 M152.5 83.02 C101.11 82.88, 50.25 85.9, 20.75 83.02 M152.5 83.02 C122.27 81.12, 90.31 81.3, 20.75 83.02 M20.75 83.02 C4.93 84.62, -1.59 76.13, 0 62.26 M20.75 83.02 C6.77 83.59, 0.74 74.92, 0 62.26 M0 62.26 C1.62 51.63, 0.16 42.63, 0 20.75 M0 62.26 C-0.88 49.72, -0.83 36.68, 0 20.75 M0 20.75 C-0.81 6.27, 6.16 -0.58, 20.75 0 M0 20.75 C-1.74 8.46, 8.56 -1.4, 20.75 0" stroke="#1e1e1e" stroke-width="2" fill="none"></path></g><g transform="translate(319.0696716308594 407.9464447784761) rotate(0 45.919952392578125 12.5)"><text x="45.919952392578125" y="0" font-family="Virgil, Segoe UI Emoji" font-size="20px" fill="#1e1e1e" text-anchor="middle" style="white-space: pre;" direction="ltr" dominant-baseline="text-before-edge">Servidor2</text></g><g stroke-linecap="round" transform="translate(484.22308349609375 379.7323334503511) rotate(0 86.62518310546875 41.50872802734375)"><path d="M20.75 0 C51.11 -0.47, 76.06 -3.86, 152.5 0 C167.53 -0.93, 170.33 5.62, 173.25 20.75 C172.41 33.54, 169.46 46.13, 173.25 62.26 C169.98 77.86, 165.76 84.85, 152.5 83.02 C107.04 82.57, 67.39 84.29, 20.75 83.02 C4.88 81.38, -2.25 78.83, 0 62.26 C-3.13 51.57, -0.48 35.52, 0 20.75 C3.29 5.84, 3.66 2.97, 20.75 0" stroke="none" stroke-width="0" fill="#ffec99"></path><path d="M20.75 0 C63.52 -0.06, 101.37 0.37, 152.5 0 M20.75 0 C71.95 -1.59, 120.81 -0.76, 152.5 0 M152.5 0 C165.25 1.64, 173.88 8.47, 173.25 20.75 M152.5 0 C165.49 -0.52, 172.71 5.56, 173.25 20.75 M173.25 20.75 C173.4 30.61, 173.22 37.84, 173.25 62.26 M173.25 20.75 C173.04 31.55, 172.62 42.32, 173.25 62.26 M173.25 62.26 C171.91 75.04, 168.31 83.82, 152.5 83.02 M173.25 62.26 C174.69 77.88, 164.21 81.16, 152.5 83.02 M152.5 83.02 C111.49 80.54, 74.11 82.31, 20.75 83.02 M152.5 83.02 C114.35 82.68, 77.08 84.11, 20.75 83.02 M20.75 83.02 C6.91 83.98, 0.52 75.83, 0 62.26 M20.75 83.02 C5.14 82.37, -0.46 75.09, 0 62.26 M0 62.26 C1.38 52.86, 1.57 41.46, 0 20.75 M0 62.26 C0.08 51.3, 0.14 37.95, 0 20.75 M0 20.75 C0.66 5.28, 8.65 -1.51, 20.75 0 M0 20.75 C1.29 5.55, 9.17 2.3, 20.75 0" stroke="#1e1e1e" stroke-width="2" fill="none"></path></g><g transform="translate(525.2383117675781 408.74106147769487) rotate(0 45.609954833984375 12.5)"><text x="45.609954833984375" y="0" font-family="Virgil, Segoe UI Emoji" font-size="20px" fill="#1e1e1e" text-anchor="middle" style="white-space: pre;" direction="ltr" dominant-baseline="text-before-edge">Servidor3</text></g><g stroke-linecap="round" transform="translate(681.9777221679688 380.2939789581636) rotate(0 86.62518310546875 41.50872802734375)"><path d="M20.75 0 C67.88 -0.69, 119.51 -4.28, 152.5 0 C163.94 -1.63, 172.29 4.8, 173.25 20.75 C174.91 31.63, 173.08 38.91, 173.25 62.26 C169.66 74.1, 167.69 80.36, 152.5 83.02 C107.29 84.35, 62.74 88.03, 20.75 83.02 C8.38 82.07, 0.3 72.88, 0 62.26 C2.46 45.95, 3.55 35.4, 0 20.75 C-1.05 8.77, 5.49 2.68, 20.75 0" stroke="none" stroke-width="0" fill="#ffec99"></path><path d="M20.75 0 C57.24 0.86, 94.04 0.56, 152.5 0 M20.75 0 C59 -0.4, 95.67 -1.74, 152.5 0 M152.5 0 C167.98 0.48, 174.91 8.48, 173.25 20.75 M152.5 0 C166.6 1.41, 172.93 7.1, 173.25 20.75 M173.25 20.75 C171.39 28.95, 172.31 40.05, 173.25 62.26 M173.25 20.75 C173.53 36.82, 172.59 52.95, 173.25 62.26 M173.25 62.26 C173.61 74.94, 167.02 81.71, 152.5 83.02 M173.25 62.26 C171.92 76.2, 165.62 83.58, 152.5 83.02 M152.5 83.02 C110.14 82.85, 71.5 83.06, 20.75 83.02 M152.5 83.02 C121.23 81.8, 88.81 81.07, 20.75 83.02 M20.75 83.02 C7.43 82.76, -0.14 76.47, 0 62.26 M20.75 83.02 C7.41 84.2, 0.2 75.79, 0 62.26 M0 62.26 C-0.74 52.6, 1.13 46, 0 20.75 M0 62.26 C-0.34 45.83, 0.23 29.53, 0 20.75 M0 20.75 C1.88 6.12, 8.81 0.88, 20.75 0 M0 20.75 C-0.29 7.48, 6.89 -1.78, 20.75 0" stroke="#1e1e1e" stroke-width="2" fill="none"></path></g><g transform="translate(723.4029541015625 409.30270698550737) rotate(0 45.199951171875 12.5)"><text x="45.199951171875" y="0" font-family="Virgil, Segoe UI Emoji" font-size="20px" fill="#1e1e1e" text-anchor="middle" style="white-space: pre;" direction="ltr" dominant-baseline="text-before-edge">Servidor4</text></g><g stroke-linecap="round" transform="translate(371.9298095703125 586.8266327667574) rotate(0 112.4681396484375 24.749053955078125)"><path d="M12.37 0 C51.29 2.06, 93.94 1.69, 212.56 0 C219.26 2.3, 223.56 5.52, 224.94 12.37 C226.07 21.75, 222.98 32.49, 224.94 37.12 C224.81 44.56, 221.27 48.59, 212.56 49.5 C132.21 51.47, 56.67 52.71, 12.37 49.5 C2.36 47.95, -2.37 45.33, 0 37.12 C0.7 26.56, -1.14 20.79, 0 12.37 C2.12 4.08, 4.33 -1.4, 12.37 0" stroke="none" stroke-width="0" fill="#b2f2bb"></path><path d="M12.37 0 C78.5 0.71, 145 0.53, 212.56 0 M12.37 0 C65.58 0.28, 118.04 0.47, 212.56 0 M212.56 0 C221.65 0.01, 224.32 4.77, 224.94 12.37 M212.56 0 C219.88 -0.34, 224.84 4.36, 224.94 12.37 M224.94 12.37 C224.39 20.12, 224.74 26.42, 224.94 37.12 M224.94 12.37 C225.07 21.34, 225.34 30.39, 224.94 37.12 M224.94 37.12 C224.16 45.42, 221.63 49.29, 212.56 49.5 M224.94 37.12 C224.07 45.84, 219.83 49.18, 212.56 49.5 M212.56 49.5 C138.46 50.33, 64.23 49.29, 12.37 49.5 M212.56 49.5 C140.44 50.14, 67.61 49.95, 12.37 49.5 M12.37 49.5 C3.5 49.14, -0.57 44.9, 0 37.12 M12.37 49.5 C4.52 49.57, 1.03 44.61, 0 37.12 M0 37.12 C0.11 27.98, -0.01 17.55, 0 12.37 M0 37.12 C0.01 27.33, -0.45 18.02, 0 12.37 M0 12.37 C-0.66 4.91, 3.33 0.41, 12.37 0 M0 12.37 C-0.37 4.46, 3.5 -0.8, 12.37 0" stroke="#1e1e1e" stroke-width="2" fill="none"></path></g><g transform="translate(423.79798889160156 599.0756867218355) rotate(0 60.59996032714844 12.5)"><text x="60.59996032714844" y="0" font-family="Virgil, Segoe UI Emoji" font-size="20px" fill="#1e1e1e" text-anchor="middle" style="white-space: pre;" direction="ltr" dominant-baseline="text-before-edge">Balanceador</text></g><g stroke-linecap="round" transform="translate(366.633056640625 224.73691108706987) rotate(0 128.78643798828125 36.850982666015625)"><path d="M18.43 0 C98.63 -5.19, 174.94 -2.1, 239.15 0 C249.51 -2.17, 255 7.47, 257.57 18.43 C258.06 29.71, 258.44 39.52, 257.57 55.28 C257.72 64.12, 253.85 73.51, 239.15 73.7 C176.1 72.25, 114.23 71.94, 18.43 73.7 C6.99 76.4, 0.34 69.59, 0 55.28 C0.2 49.82, -1.24 36.22, 0 18.43 C-1.23 4.04, 8.94 -1.06, 18.43 0" stroke="none" stroke-width="0" fill="#a5d8ff"></path><path d="M18.43 0 C101.79 0.51, 185.1 2.17, 239.15 0 M18.43 0 C79.4 0.8, 139.9 1.3, 239.15 0 M239.15 0 C253.4 -1.13, 259.27 4.31, 257.57 18.43 M239.15 0 C253.14 -2.21, 259.12 4.35, 257.57 18.43 M257.57 18.43 C257.91 29.74, 255.95 41.76, 257.57 55.28 M257.57 18.43 C256.86 32.29, 256.65 45.43, 257.57 55.28 M257.57 55.28 C256.41 65.62, 249.7 72.73, 239.15 73.7 M257.57 55.28 C259 66.63, 251.12 75.97, 239.15 73.7 M239.15 73.7 C153.34 75.73, 69.74 75.64, 18.43 73.7 M239.15 73.7 C171.48 74.25, 102.76 74.71, 18.43 73.7 M18.43 73.7 C5.4 73.3, -0.51 68.75, 0 55.28 M18.43 73.7 C5.36 73.52, 0.56 69.57, 0 55.28 M0 55.28 C-1.43 45.36, -0.19 32.22, 0 18.43 M0 55.28 C-0.35 43.83, -0.59 30.23, 0 18.43 M0 18.43 C1.69 4.29, 5.91 0.68, 18.43 0 M0 18.43 C0 4.39, 8.12 1.91, 18.43 0" stroke="#1971c2" stroke-width="2" fill="none"></path></g><g transform="translate(469.8595199584961 249.0878937530855) rotate(0 25.559974670410156 12.5)"><text x="25.559974670410156" y="0" font-family="Virgil, Segoe UI Emoji" font-size="20px" fill="#1971c2" text-anchor="middle" style="white-space: pre;" direction="ltr" dominant-baseline="text-before-edge">Redis</text></g><g stroke-linecap="round"><g transform="translate(475.0496826171875 741.3981659698824) rotate(0 -0.33020097539167637 -50.049313785987806)"><path d="M0.05 0.1 C-0.06 -16.6, -0.47 -83.5, -0.6 -100.2 M-0.1 0.03 C-0.23 -16.66, -0.65 -83.41, -0.71 -100.08" stroke="#1e1e1e" stroke-width="2" fill="none"></path></g><g transform="translate(475.0496826171875 741.3981659698824) rotate(0 -0.33020097539167637 -50.049313785987806)"><path d="M9.7 -71.94 C6.55 -80.93, 2.76 -90.27, -0.71 -100.08 M9.7 -71.94 C6.93 -79.29, 4.17 -86.82, -0.71 -100.08" stroke="#1e1e1e" stroke-width="2" fill="none"></path></g><g transform="translate(475.0496826171875 741.3981659698824) rotate(0 -0.33020097539167637 -50.049313785987806)"><path d="M-10.82 -71.84 C-7.38 -80.87, -4.59 -90.24, -0.71 -100.08 M-10.82 -71.84 C-8.17 -79.21, -5.51 -86.76, -0.71 -100.08" stroke="#1e1e1e" stroke-width="2" fill="none"></path></g></g><mask></mask><g stroke-linecap="round" transform="translate(10 364.74127510074175) rotate(0 460.5771484375 67.47215270996094)"><path d="M32 0 C339.45 -0.37, 647.62 -0.18, 889.15 0 M32 0 C245.2 0.25, 457.82 -0.19, 889.15 0 M889.15 0 C909.97 -0.14, 920.61 9.32, 921.15 32 M889.15 0 C912.78 2.21, 921.39 9.57, 921.15 32 M921.15 32 C921.84 51.87, 919.59 67.88, 921.15 102.94 M921.15 32 C921.68 49.01, 921.4 64.03, 921.15 102.94 M921.15 102.94 C921.33 126.26, 910.63 134.71, 889.15 134.94 M921.15 102.94 C920.01 123.95, 912.15 135.65, 889.15 134.94 M889.15 134.94 C559.87 131.1, 230.23 132.16, 32 134.94 M889.15 134.94 C622.36 133.67, 354.88 133.47, 32 134.94 M32 134.94 C11.65 133.3, -0.85 125.83, 0 102.94 M32 134.94 C10.47 133.79, -1.77 122.73, 0 102.94 M0 102.94 C1.74 82.27, -0.53 63.65, 0 32 M0 102.94 C0.4 86.79, 0.36 71.16, 0 32 M0 32 C0.35 10.3, 10.93 0.54, 32 0 M0 32 C-1.55 8.47, 9.4 -0.84, 32 0" stroke="#1e1e1e" stroke-width="2" fill="none"></path></g><g stroke-linecap="round"><g transform="translate(481.24365234375 586.1911957550386) rotate(0 -0.06089893599755669 -44.25032664751322)"><path d="M-0.07 -0.06 C-0.14 -14.77, -0.28 -73.53, -0.28 -88.2 M0.16 -0.22 C0.12 -14.97, 0.03 -73.75, -0.02 -88.44" stroke="#1e1e1e" stroke-width="2" fill="none"></path></g><g transform="translate(481.24365234375 586.1911957550386) rotate(0 -0.06089893599755669 -44.25032664751322)"><path d="M10.31 -60.27 C6.09 -71.68, 2.21 -82.41, -0.02 -88.44 M10.31 -60.27 C6.3 -70.87, 2.4 -81.71, -0.02 -88.44" stroke="#1e1e1e" stroke-width="2" fill="none"></path></g><g transform="translate(481.24365234375 586.1911957550386) rotate(0 -0.06089893599755669 -44.25032664751322)"><path d="M-10.21 -60.22 C-6.3 -71.63, -2.06 -82.39, -0.02 -88.44 M-10.21 -60.22 C-6.42 -70.83, -2.52 -81.69, -0.02 -88.44" stroke="#1e1e1e" stroke-width="2" fill="none"></path></g></g><mask></mask><g stroke-linecap="round"><g transform="translate(482.2362060546875 363.7944672394136) rotate(0 0.9933427405430848 -33.5253867434277)"><path d="M0.12 0.14 C0.46 -11.06, 1.66 -55.96, 1.99 -67.19 M0 0.08 C0.31 -11.1, 1.51 -55.81, 1.84 -67.02" stroke="#1e1e1e" stroke-width="2" fill="none"></path></g><g transform="translate(482.2362060546875 363.7944672394136) rotate(0 0.9933427405430848 -33.5253867434277)"><path d="M11.31 -38.55 C8.92 -46.62, 5.94 -54.41, 1.84 -67.02 M11.31 -38.55 C9.23 -45.04, 7.06 -51.46, 1.84 -67.02" stroke="#1e1e1e" stroke-width="2" fill="none"></path></g><g transform="translate(482.2362060546875 363.7944672394136) rotate(0 0.9933427405430848 -33.5253867434277)"><path d="M-9.21 -39.12 C-5.85 -47.06, -3.09 -54.68, 1.84 -67.02 M-9.21 -39.12 C-6.59 -45.5, -4.07 -51.79, 1.84 -67.02" stroke="#1e1e1e" stroke-width="2" fill="none"></path></g></g><mask></mask><g stroke-linecap="round"><g transform="translate(526.4991455078125 303.1527436066011) rotate(0 0.6963588964188148 30.176266417551318)"><path d="M-0.01 0.04 C0.18 10.08, 1.07 50.24, 1.3 60.28 M-0.2 -0.07 C0.03 9.99, 1.35 50.35, 1.59 60.42" stroke="#1e1e1e" stroke-width="2" fill="none"></path></g><g transform="translate(526.4991455078125 303.1527436066011) rotate(0 0.6963588964188148 30.176266417551318)"><path d="M-9.48 32.54 C-5.15 43.12, -1.13 53.99, 1.59 60.42 M-9.48 32.54 C-6.8 39.26, -4.18 46.13, 1.59 60.42" stroke="#1e1e1e" stroke-width="2" fill="none"></path></g><g transform="translate(526.4991455078125 303.1527436066011) rotate(0 0.6963588964188148 30.176266417551318)"><path d="M11.03 31.95 C7.48 42.75, 3.62 53.85, 1.59 60.42 M11.03 31.95 C8.74 38.83, 6.39 45.84, 1.59 60.42" stroke="#1e1e1e" stroke-width="2" fill="none"></path></g></g><mask></mask><g stroke-linecap="round"><g transform="translate(521.47900390625 494.0785248566011) rotate(0 -0.8377703333420641 45.488552401934925)"><path d="M0.14 0.05 C-0.13 15.23, -1.44 75.91, -1.75 91.03 M0.03 -0.06 C-0.25 15.1, -1.52 75.68, -1.82 90.83" stroke="#1e1e1e" stroke-width="2" fill="none"></path></g><g transform="translate(521.47900390625 494.0785248566011) rotate(0 -0.8377703333420641 45.488552401934925)"><path d="M-11.5 62.44 C-9.2 69.16, -6.82 75.72, -1.82 90.83 M-11.5 62.44 C-9.46 68.59, -7.44 74.5, -1.82 90.83" stroke="#1e1e1e" stroke-width="2" fill="none"></path></g><g transform="translate(521.47900390625 494.0785248566011) rotate(0 -0.8377703333420641 45.488552401934925)"><path d="M9.02 62.86 C6.61 69.51, 4.28 75.98, -1.82 90.83 M9.02 62.86 C6.66 68.9, 4.29 74.71, -1.82 90.83" stroke="#1e1e1e" stroke-width="2" fill="none"></path></g></g><mask></mask><g stroke-linecap="round"><g transform="translate(517.6112060546875 635.5260346222261) rotate(0 -5.02007519929964 50.46006148885192)"><path d="M0.14 0.16 C-1.57 16.95, -8.45 83.86, -10.18 100.62 M0.01 0.09 C-1.65 16.91, -8.2 84.1, -9.85 100.83" stroke="#1e1e1e" stroke-width="2" fill="none"></path></g><g transform="translate(517.6112060546875 635.5260346222261) rotate(0 -5.02007519929964 50.46006148885192)"><path d="M-17.31 71.77 C-14.44 81.66, -12.2 91.63, -9.85 100.83 M-17.31 71.77 C-14.85 82.23, -11.95 92.56, -9.85 100.83" stroke="#1e1e1e" stroke-width="2" fill="none"></path></g><g transform="translate(517.6112060546875 635.5260346222261) rotate(0 -5.02007519929964 50.46006148885192)"><path d="M3.11 73.77 C-1.11 82.99, -5.96 92.27, -9.85 100.83 M3.11 73.77 C-1.73 83.49, -6.12 93.1, -9.85 100.83" stroke="#1e1e1e" stroke-width="2" fill="none"></path></g></g><mask></mask><g stroke-linecap="round" transform="translate(1307.2666015625 355.31454780581987) rotate(0 82.29833984375 17.5)"><path d="M8.75 0 C63.18 0.02, 118.49 -0.14, 155.85 0 M8.75 0 C61.84 0.18, 115.11 0.35, 155.85 0 M155.85 0 C161.81 0.21, 164.56 3.03, 164.6 8.75 M155.85 0 C161.24 0.19, 164.05 2.79, 164.6 8.75 M164.6 8.75 C164.67 13.4, 164.42 17.65, 164.6 26.25 M164.6 8.75 C164.65 13.56, 164.55 17.88, 164.6 26.25 M164.6 26.25 C164.69 32.07, 161.26 35.54, 155.85 35 M164.6 26.25 C164.64 31.58, 161.2 34.86, 155.85 35 M155.85 35 C117.06 34.12, 77.03 34.17, 8.75 35 M155.85 35 C109.37 34.52, 63.24 34.93, 8.75 35 M8.75 35 C3.33 35.3, 0.3 31.73, 0 26.25 M8.75 35 C3.12 35.15, -0.22 31.7, 0 26.25 M0 26.25 C-0.36 20.8, -0.11 16.14, 0 8.75 M0 26.25 C-0.22 21.07, -0.23 16.18, 0 8.75 M0 8.75 C-0.35 2.4, 2.45 -0.43, 8.75 0 M0 8.75 C0.3 3.07, 2.69 0.26, 8.75 0" stroke="#1e1e1e" stroke-width="2" fill="none"></path></g><g transform="translate(1361.5849685668945 360.31454780581987) rotate(0 27.97997283935547 12.5)"><text x="27.97997283935547" y="0" font-family="Virgil, Segoe UI Emoji" font-size="20px" fill="#1e1e1e" text-anchor="middle" style="white-space: pre;" direction="ltr" dominant-baseline="text-before-edge">Count</text></g><g stroke-linecap="round" transform="translate(1470.4495849609375 353.46173408511675) rotate(0 93.71246337890625 17.5)"><path d="M8.75 0 C53.45 0.67, 98.58 -0.05, 178.67 0 M8.75 0 C60.53 -0.33, 112.44 -0.18, 178.67 0 M178.67 0 C184.57 -0.39, 187.19 3.15, 187.42 8.75 M178.67 0 C184.67 0.5, 186.88 3.25, 187.42 8.75 M187.42 8.75 C187.83 14.5, 187.85 20.78, 187.42 26.25 M187.42 8.75 C187.2 15.5, 187.37 22.65, 187.42 26.25 M187.42 26.25 C187.11 32, 184.46 34.44, 178.67 35 M187.42 26.25 C187.84 31.99, 184.87 35.57, 178.67 35 M178.67 35 C138.37 34.93, 98.78 34.66, 8.75 35 M178.67 35 C141.66 34.79, 104.37 34.76, 8.75 35 M8.75 35 C2.93 35.07, 0.21 32.47, 0 26.25 M8.75 35 C3.08 35.31, 0.28 32.73, 0 26.25 M0 26.25 C-0.46 22.61, -0.17 18.63, 0 8.75 M0 26.25 C0.01 19.68, -0.01 13.38, 0 8.75 M0 8.75 C-0.11 3.35, 2.63 0.31, 8.75 0 M0 8.75 C0.18 2.8, 2.63 0.43, 8.75 0" stroke="#1e1e1e" stroke-width="2" fill="none"></path></g><g transform="translate(1552.2820587158203 358.46173408511675) rotate(0 11.879989624023438 12.5)"><text x="11.879989624023438" y="0" font-family="Virgil, Segoe UI Emoji" font-size="20px" fill="#1e1e1e" text-anchor="middle" style="white-space: pre;" direction="ltr" dominant-baseline="text-before-edge">6..</text></g><g stroke-linecap="round" transform="translate(1308.9989013671875 569.1522858429292) rotate(0 82.29833984375 17.5)"><path d="M8.75 0 C52.59 -0.03, 95.39 -0.56, 155.85 0 M8.75 0 C65.72 -0.52, 122.27 -0.33, 155.85 0 M155.85 0 C162.04 -0.24, 164.52 2.76, 164.6 8.75 M155.85 0 C161.58 0.44, 164.86 3.35, 164.6 8.75 M164.6 8.75 C164.73 14.86, 164.8 22.1, 164.6 26.25 M164.6 8.75 C164.8 13.97, 164.65 19.38, 164.6 26.25 M164.6 26.25 C164.99 32.64, 162.11 35.49, 155.85 35 M164.6 26.25 C164.17 31.92, 161.14 34.63, 155.85 35 M155.85 35 C124.35 35.21, 93.51 34.74, 8.75 35 M155.85 35 C114.75 35.33, 72.99 35.12, 8.75 35 M8.75 35 C2.46 35.41, 0.33 32.37, 0 26.25 M8.75 35 C3.09 35.2, -0.36 31.69, 0 26.25 M0 26.25 C0.2 22.43, -0.46 18.03, 0 8.75 M0 26.25 C0.01 21.24, -0.07 16.03, 0 8.75 M0 8.75 C-0.57 2.88, 3.47 0.35, 8.75 0 M0 8.75 C-0.3 2.31, 2.29 -0.65, 8.75 0" stroke="#1e1e1e" stroke-width="2" fill="none"></path></g><g transform="translate(1388.5872421264648 574.1522858429292) rotate(0 2.7099990844726562 12.5)"><text x="2.7099990844726562" y="0" font-family="Virgil, Segoe UI Emoji" font-size="20px" fill="#1e1e1e" text-anchor="middle" style="white-space: pre;" direction="ltr" dominant-baseline="text-before-edge">1</text></g><g stroke-linecap="round" transform="translate(1476.6480712890625 569.3273041534761) rotate(0 93.71246337890625 15.47119140625)"><path d="M7.74 0 C66.58 -0.46, 126.4 0.14, 179.69 0 M7.74 0 C72.38 0.29, 137 0.2, 179.69 0 M179.69 0 C184.78 -0.14, 187.35 2.92, 187.42 7.74 M179.69 0 C185.09 0.39, 187.85 2.58, 187.42 7.74 M187.42 7.74 C187.6 12.14, 187.42 16.07, 187.42 23.21 M187.42 7.74 C187.49 11.28, 187.59 14.63, 187.42 23.21 M187.42 23.21 C187.81 28.81, 184.51 30.81, 179.69 30.94 M187.42 23.21 C186.94 28.04, 184.33 30.67, 179.69 30.94 M179.69 30.94 C135.82 31.18, 91.44 31.25, 7.74 30.94 M179.69 30.94 C123.31 31.29, 67.02 31.46, 7.74 30.94 M7.74 30.94 C2.88 31.2, 0.13 28.52, 0 23.21 M7.74 30.94 C2.25 30.59, -0.4 28.12, 0 23.21 M0 23.21 C-0.39 19.55, -0.03 15.88, 0 7.74 M0 23.21 C-0.07 17.77, -0.2 12.13, 0 7.74 M0 7.74 C0.5 2.89, 2.34 -0.47, 7.74 0 M0 7.74 C-0.56 2, 2.89 0.2, 7.74 0" stroke="#1e1e1e" stroke-width="2" fill="none"></path></g><g stroke-linecap="round" transform="translate(1307.6163330078125 600.636843948398) rotate(0 82.29833984375 17.5)"><path d="M8.75 0 C58.67 0.36, 108.1 0.74, 155.85 0 M8.75 0 C57.29 0.07, 105.22 -0.08, 155.85 0 M155.85 0 C161.22 0.11, 164.81 2.86, 164.6 8.75 M155.85 0 C161.78 -0.1, 164.08 2.32, 164.6 8.75 M164.6 8.75 C164.32 13.75, 164.35 17.86, 164.6 26.25 M164.6 8.75 C164.49 14.79, 164.37 20.42, 164.6 26.25 M164.6 26.25 C164.97 32, 162.13 34.59, 155.85 35 M164.6 26.25 C164.29 32.01, 162.26 35.48, 155.85 35 M155.85 35 C113.19 35.73, 69.43 35.42, 8.75 35 M155.85 35 C113.93 35.49, 72.27 35.21, 8.75 35 M8.75 35 C3.27 35.32, 0.08 31.66, 0 26.25 M8.75 35 C3.14 35.32, 0.31 31.97, 0 26.25 M0 26.25 C-0.21 21.5, 0.31 17.59, 0 8.75 M0 26.25 C0.13 19.84, -0.06 13.18, 0 8.75 M0 8.75 C-0.01 2.51, 2.85 0.26, 8.75 0 M0 8.75 C0.38 2.49, 2.56 -0.2, 8.75 0" stroke="#1e1e1e" stroke-width="2" fill="none"></path></g><g transform="translate(1382.794677734375 605.636843948398) rotate(0 7.1199951171875 12.5)"><text x="7.1199951171875" y="0" font-family="Virgil, Segoe UI Emoji" font-size="20px" fill="#1e1e1e" text-anchor="middle" style="white-space: pre;" direction="ltr" dominant-baseline="text-before-edge">2</text></g><g stroke-linecap="round" transform="translate(1475.2655029296875 600.8118622589449) rotate(0 93.71246337890625 15.47119140625)"><path d="M7.74 0 C43.93 0.34, 81.14 0.05, 179.69 0 M7.74 0 C58.97 -0.18, 110.46 -0.05, 179.69 0 M179.69 0 C185.04 -0.05, 187.5 2.5, 187.42 7.74 M179.69 0 C184.38 -0.54, 187.17 2.11, 187.42 7.74 M187.42 7.74 C187.25 12.11, 187.55 16.46, 187.42 23.21 M187.42 7.74 C187.21 13.34, 187.53 19.13, 187.42 23.21 M187.42 23.21 C187.83 27.99, 184.6 30.88, 179.69 30.94 M187.42 23.21 C187.95 28.79, 184.81 30.4, 179.69 30.94 M179.69 30.94 C111.66 31.22, 43.83 31.27, 7.74 30.94 M179.69 30.94 C113.17 31, 46.73 31.28, 7.74 30.94 M7.74 30.94 C2.65 30.56, 0.17 28.62, 0 23.21 M7.74 30.94 C2.86 30.84, -0.27 28.28, 0 23.21 M0 23.21 C0.26 19.52, 0.3 15.64, 0 7.74 M0 23.21 C-0.06 18.5, -0.03 13.8, 0 7.74 M0 7.74 C-0.06 2.81, 2.88 -0.33, 7.74 0 M0 7.74 C-0.32 2.4, 2.21 0.01, 7.74 0" stroke="#1e1e1e" stroke-width="2" fill="none"></path></g><g stroke-linecap="round" transform="translate(1307.5064697265625 635.271609573398) rotate(0 82.29833984375 13.509307861328125)"><path d="M6.75 0 C55.63 -0.15, 104.32 -0.25, 157.84 0 M6.75 0 C53.16 0.22, 99.27 0, 157.84 0 M157.84 0 C162.56 -0.12, 164.56 2.36, 164.6 6.75 M157.84 0 C162.74 -0.37, 164.65 2.62, 164.6 6.75 M164.6 6.75 C164.66 11.43, 164.64 16.78, 164.6 20.26 M164.6 6.75 C164.55 9.71, 164.73 12.79, 164.6 20.26 M164.6 20.26 C164.23 24.98, 162.76 26.68, 157.84 27.02 M164.6 20.26 C164.33 24.75, 162.63 27.03, 157.84 27.02 M157.84 27.02 C103.79 26.54, 50.12 27.38, 6.75 27.02 M157.84 27.02 C105.84 27.31, 54.02 27.48, 6.75 27.02 M6.75 27.02 C2.26 26.65, -0.26 24.95, 0 20.26 M6.75 27.02 C1.82 27.2, -0.23 24.29, 0 20.26 M0 20.26 C0.19 15.06, 0.01 9.62, 0 6.75 M0 20.26 C0.01 17.51, -0.15 14.69, 0 6.75 M0 6.75 C0.19 2.58, 2.49 0.04, 6.75 0 M0 6.75 C-0.19 2.02, 2.56 -0.12, 6.75 0" stroke="#1e1e1e" stroke-width="2" fill="none"></path></g><g stroke-linecap="round" transform="translate(1475.1556396484375 635.4466278839449) rotate(0 93.71246337890625 15.47119140625)"><path d="M7.74 0 C68.81 -0.1, 130.59 0.46, 179.69 0 M7.74 0 C53.98 -0.34, 100.24 -0.28, 179.69 0 M179.69 0 C184.8 0.12, 187.8 2.22, 187.42 7.74 M179.69 0 C184.9 0.4, 187.78 2.95, 187.42 7.74 M187.42 7.74 C187.45 12.08, 187.14 15.6, 187.42 23.21 M187.42 7.74 C187.59 12, 187.26 16.67, 187.42 23.21 M187.42 23.21 C187.88 27.99, 184.59 30.93, 179.69 30.94 M187.42 23.21 C187.73 28.38, 185.18 31.02, 179.69 30.94 M179.69 30.94 C131.95 31.06, 84.71 30.52, 7.74 30.94 M179.69 30.94 C111.43 30.98, 43.04 30.64, 7.74 30.94 M7.74 30.94 C2.29 31.15, -0.42 28.54, 0 23.21 M7.74 30.94 C2.33 30.42, 0.5 28.24, 0 23.21 M0 23.21 C-0.02 17.36, -0.39 12.08, 0 7.74 M0 23.21 C-0.2 17.99, 0.08 12.76, 0 7.74 M0 7.74 C0.26 2.62, 2.4 -0.22, 7.74 0 M0 7.74 C0.34 2.44, 2.44 -0.58, 7.74 0" stroke="#1e1e1e" stroke-width="2" fill="none"></path></g><g transform="translate(1388.5203857421875 539.1039154816011) rotate(0 31.209976196289062 12.5)"><text x="0" y="0" font-family="Virgil, Segoe UI Emoji" font-size="20px" fill="#1e1e1e" text-anchor="start" style="white-space: pre;" direction="ltr" dominant-baseline="text-before-edge">id INC</text></g><g transform="translate(1525.489990234375 536.2076142120699) rotate(0 51.63995361328125 12.5)"><text x="0" y="0" font-family="Virgil, Segoe UI Emoji" font-size="20px" fill="#1e1e1e" text-anchor="start" style="white-space: pre;" direction="ltr" dominant-baseline="text-before-edge">N. request</text></g><g transform="translate(1552.27392578125 574.7397797394136) rotate(0 6.6699981689453125 12.5)"><text x="0" y="0" font-family="Virgil, Segoe UI Emoji" font-size="20px" fill="#1e1e1e" text-anchor="start" style="white-space: pre;" direction="ltr" dominant-baseline="text-before-edge">a</text></g><g transform="translate(1554.87451171875 609.1277802276949) rotate(0 5.079994201660156 12.5)"><text x="0" y="0" font-family="Virgil, Segoe UI Emoji" font-size="20px" fill="#1e1e1e" text-anchor="start" style="white-space: pre;" direction="ltr" dominant-baseline="text-before-edge">b</text></g><g stroke-linecap="round" transform="translate(1664.7644653320312 570.3343842316011) rotate(0 93.71246337890625 15.47119140625)"><path d="M7.74 0 C54.59 -0.07, 100.25 -0.29, 179.69 0 M7.74 0 C69.12 -0.26, 130.97 -0.15, 179.69 0 M179.69 0 C184.83 0.12, 187.35 2.55, 187.42 7.74 M179.69 0 C184.99 0.44, 187 2.9, 187.42 7.74 M187.42 7.74 C187.44 11.88, 187.41 15.57, 187.42 23.21 M187.42 7.74 C187.44 13.92, 187.32 19.79, 187.42 23.21 M187.42 23.21 C187.38 28.05, 185.15 31.38, 179.69 30.94 M187.42 23.21 C187.25 28.3, 185.04 30.75, 179.69 30.94 M179.69 30.94 C132.51 30.77, 86.41 31.05, 7.74 30.94 M179.69 30.94 C126.76 30.89, 73.59 30.86, 7.74 30.94 M7.74 30.94 C2.99 31.09, 0.14 28.37, 0 23.21 M7.74 30.94 C2.98 31.29, 0.05 27.81, 0 23.21 M0 23.21 C-0.02 19.96, -0.19 16.24, 0 7.74 M0 23.21 C-0.13 17.17, 0.05 10.99, 0 7.74 M0 7.74 C-0.25 2.66, 2.83 -0.5, 7.74 0 M0 7.74 C-0.27 2.8, 2.88 0.4, 7.74 0" stroke="#1e1e1e" stroke-width="2" fill="none"></path></g><g stroke-linecap="round" transform="translate(1663.3818969726562 601.8189423370699) rotate(0 93.71246337890625 15.47119140625)"><path d="M7.74 0 C52.89 -0.26, 98.96 0.34, 179.69 0 M7.74 0 C62.86 0.23, 117.58 0.36, 179.69 0 M179.69 0 C184.77 -0.02, 187.55 2.96, 187.42 7.74 M179.69 0 C184.42 0.32, 187.09 2.36, 187.42 7.74 M187.42 7.74 C187.43 13.86, 187.8 19.28, 187.42 23.21 M187.42 7.74 C187.33 12.62, 187.41 17.7, 187.42 23.21 M187.42 23.21 C187.73 28.8, 184.69 30.89, 179.69 30.94 M187.42 23.21 C187.62 28.17, 184.69 30.68, 179.69 30.94 M179.69 30.94 C139.35 31.42, 98.11 31.17, 7.74 30.94 M179.69 30.94 C122 30.33, 64.03 30.64, 7.74 30.94 M7.74 30.94 C2.72 30.94, 0.35 28.66, 0 23.21 M7.74 30.94 C2.63 30.39, -0.41 28.01, 0 23.21 M0 23.21 C-0.21 19.95, 0.4 16.28, 0 7.74 M0 23.21 C0.06 19.06, -0.07 14.66, 0 7.74 M0 7.74 C0.25 2.08, 2.34 0.19, 7.74 0 M0 7.74 C0.3 2.98, 2.46 -0.51, 7.74 0" stroke="#1e1e1e" stroke-width="2" fill="none"></path></g><g stroke-linecap="round" transform="translate(1663.2720336914062 636.4537079620699) rotate(0 93.71246337890625 15.47119140625)"><path d="M7.74 0 C52.13 0.53, 96.04 0.12, 179.69 0 M7.74 0 C47.77 0.17, 87.77 0.1, 179.69 0 M179.69 0 C184.98 0.38, 187.06 2.86, 187.42 7.74 M179.69 0 C184.51 -0.22, 187.86 2.62, 187.42 7.74 M187.42 7.74 C187.8 13.89, 187.53 20.14, 187.42 23.21 M187.42 7.74 C187.39 12.83, 187.52 18.33, 187.42 23.21 M187.42 23.21 C187.27 28.31, 185.02 30.78, 179.69 30.94 M187.42 23.21 C187.26 28.1, 184.48 30.59, 179.69 30.94 M179.69 30.94 C124.56 31.41, 69.53 31.75, 7.74 30.94 M179.69 30.94 C142.95 30.6, 105.87 30.53, 7.74 30.94 M7.74 30.94 C2.93 31.24, 0.04 27.88, 0 23.21 M7.74 30.94 C2.17 30.59, -0.47 28.3, 0 23.21 M0 23.21 C0.42 17.23, -0.07 11.17, 0 7.74 M0 23.21 C-0.1 17.51, 0.09 11.55, 0 7.74 M0 7.74 C-0.24 2.77, 2.84 0.35, 7.74 0 M0 7.74 C-0.12 2.07, 2.88 0.02, 7.74 0" stroke="#1e1e1e" stroke-width="2" fill="none"></path></g><g transform="translate(1713.6063842773438 537.2146942901949) rotate(0 51.63995361328125 12.5)"><text x="0" y="0" font-family="Virgil, Segoe UI Emoji" font-size="20px" fill="#1e1e1e" text-anchor="start" style="white-space: pre;" direction="ltr" dominant-baseline="text-before-edge">N. request</text></g><g transform="translate(1740.3903198242188 575.7468598175386) rotate(0 6.6699981689453125 12.5)"><text x="0" y="0" font-family="Virgil, Segoe UI Emoji" font-size="20px" fill="#1e1e1e" text-anchor="start" style="white-space: pre;" direction="ltr" dominant-baseline="text-before-edge">a</text></g><g transform="translate(1742.9909057617188 610.1348603058199) rotate(0 5.079994201660156 12.5)"><text x="0" y="0" font-family="Virgil, Segoe UI Emoji" font-size="20px" fill="#1e1e1e" text-anchor="start" style="white-space: pre;" direction="ltr" dominant-baseline="text-before-edge">b</text></g><g transform="translate(1570.986572265625 487.1317475128511) rotate(0 39.89997100830078 12.5)"><text x="0" y="0" font-family="Virgil, Segoe UI Emoji" font-size="20px" fill="#1e1e1e" text-anchor="start" style="white-space: pre;" direction="ltr" dominant-baseline="text-before-edge">Grupo A</text></g><g stroke-linecap="round"><g transform="translate(1073.3731689453125 327.01352241519487) rotate(0 -251.47328249812347 0.618222972565718)"><path d="M-0.09 0.09 C-83.93 0.29, -419.21 0.9, -503.04 1.11 M0.14 0 C-83.71 0.23, -419.22 1.05, -503.08 1.23" stroke="#e03131" stroke-width="2" fill="none"></path></g><g transform="translate(1073.3731689453125 327.01352241519487) rotate(0 -251.47328249812347 0.618222972565718)"><path d="M-474.92 -9.09 C-483.4 -5.69, -492.47 -2.52, -503.08 1.23 M-474.92 -9.09 C-485.34 -5.27, -495.73 -1.53, -503.08 1.23" stroke="#e03131" stroke-width="2" fill="none"></path></g><g transform="translate(1073.3731689453125 327.01352241519487) rotate(0 -251.47328249812347 0.618222972565718)"><path d="M-474.87 11.43 C-483.34 8.54, -492.42 5.41, -503.08 1.23 M-474.87 11.43 C-485.32 7.62, -495.72 3.74, -503.08 1.23" stroke="#e03131" stroke-width="2" fill="none"></path></g></g><mask></mask><g transform="translate(774.986572265625 308.1317475128511) rotate(0 140.70986938476562 12.5)"><text x="0" y="0" font-family="Virgil, Segoe UI Emoji" font-size="20px" fill="#e03131" text-anchor="start" style="white-space: pre;" direction="ltr" dominant-baseline="text-before-edge">Cuello de Botella (potencial)</text></g><g stroke-linecap="round"><g transform="translate(1113.0877685546875 733.7851288605074) rotate(0 90.35212543213731 -53.93281074725087)"><path d="M0.38 -0.47 C30.83 -18.43, 151.33 -89.55, 181.58 -107.4 M-0.87 -1.76 C29.55 -19.59, 150.49 -88.61, 180.88 -106.07" stroke="#e03131" stroke-width="2" fill="none"></path></g><g transform="translate(1113.0877685546875 733.7851288605074) rotate(0 90.35212543213731 -53.93281074725087)"><path d="M161.51 -83.15 C164.69 -87.19, 168.84 -91.51, 180.88 -106.07 M161.51 -83.15 C166.24 -88.26, 171.81 -94.51, 180.88 -106.07" stroke="#e03131" stroke-width="2" fill="none"></path></g><g transform="translate(1113.0877685546875 733.7851288605074) rotate(0 90.35212543213731 -53.93281074725087)"><path d="M151.32 -100.96 C156.67 -101.32, 162.94 -101.94, 180.88 -106.07 M151.32 -100.96 C158.66 -101.52, 166.84 -103.21, 180.88 -106.07" stroke="#e03131" stroke-width="2" fill="none"></path></g></g><mask></mask><g transform="translate(1130.671875 624.8709442901949) rotate(0 53.919952392578125 12.5)"><text x="0" y="0" font-family="Virgil, Segoe UI Emoji" font-size="20px" fill="#e03131" text-anchor="start" style="white-space: pre;" direction="ltr" dominant-baseline="text-before-edge">No atomico</text></g><g stroke-linecap="round" transform="translate(1328.867919921875 242.90965583804643) rotate(0 82.29833984375 17.5)"><path d="M8.75 0 C47.1 0.33, 86.14 -0.18, 155.85 0 M8.75 0 C45.09 -0.02, 81.47 0.08, 155.85 0 M155.85 0 C161.52 0.03, 164.63 2.98, 164.6 8.75 M155.85 0 C161.9 0.57, 164.21 3.3, 164.6 8.75 M164.6 8.75 C164.22 14.99, 164.76 20.3, 164.6 26.25 M164.6 8.75 C164.62 14.05, 164.62 19.14, 164.6 26.25 M164.6 26.25 C164.07 32.44, 162.08 35.24, 155.85 35 M164.6 26.25 C164.29 31.62, 162.32 34.64, 155.85 35 M155.85 35 C119.58 34.44, 83.94 34.65, 8.75 35 M155.85 35 C114 35.19, 72 35.42, 8.75 35 M8.75 35 C2.37 34.48, 0.24 31.72, 0 26.25 M8.75 35 C3.03 35, -0.11 31.49, 0 26.25 M0 26.25 C0.11 21.77, 0.14 16.87, 0 8.75 M0 26.25 C-0.14 20.79, -0.08 15.4, 0 8.75 M0 8.75 C-0.2 2.71, 3.3 -0.42, 8.75 0 M0 8.75 C-0.22 2.6, 3.48 -0.54, 8.75 0" stroke="#1e1e1e" stroke-width="2" fill="none"></path></g><g transform="translate(1376.3862915039062 247.90965583804643) rotate(0 34.77996826171875 12.5)"><text x="34.77996826171875" y="0" font-family="Virgil, Segoe UI Emoji" font-size="20px" fill="#1e1e1e" text-anchor="middle" style="white-space: pre;" direction="ltr" dominant-baseline="text-before-edge">GroupN</text></g><g stroke-linecap="round" transform="translate(1496.025390625 243.3915589142183) rotate(0 93.71246337890625 17.5)"><path d="M8.75 0 C73.35 0.18, 138.25 -0.17, 178.67 0 M8.75 0 C45.34 0.26, 82.1 0.27, 178.67 0 M178.67 0 C184.7 0.49, 187.09 3.25, 187.42 8.75 M178.67 0 C184.76 0.49, 188.03 2.37, 187.42 8.75 M187.42 8.75 C187.44 15.46, 187.61 21.46, 187.42 26.25 M187.42 8.75 C187.19 14.43, 187.6 19.91, 187.42 26.25 M187.42 26.25 C187.15 31.68, 185.06 34.68, 178.67 35 M187.42 26.25 C187.05 32.09, 184.31 34.49, 178.67 35 M178.67 35 C140.48 35.22, 102.77 34.96, 8.75 35 M178.67 35 C130.37 35.06, 82.72 35.14, 8.75 35 M8.75 35 C3.02 35, -0.1 31.57, 0 26.25 M8.75 35 C2.72 35.23, -0.47 32.25, 0 26.25 M0 26.25 C0.03 19.75, -0.26 13.62, 0 8.75 M0 26.25 C-0.07 21.17, 0.19 16.08, 0 8.75 M0 8.75 C-0.19 2.64, 3.41 -0.47, 8.75 0 M0 8.75 C0.05 3.21, 2.98 -0.63, 8.75 0" stroke="#1e1e1e" stroke-width="2" fill="none"></path></g><g transform="translate(1526.707893371582 248.3915589142183) rotate(0 63.02996063232422 12.5)"><text x="63.02996063232422" y="0" font-family="Virgil, Segoe UI Emoji" font-size="20px" fill="#1e1e1e" text-anchor="middle" style="white-space: pre;" direction="ltr" dominant-baseline="text-before-edge">count (N++) </text></g><g stroke-linecap="round"><g transform="translate(1159.082275390625 218.77182319644487) rotate(0 79.84543791530109 19.911865338874975)"><path d="M0.13 -0.28 C26.81 6.44, 133.23 33.36, 159.92 40.1 M-0.23 0.35 C26.41 6.98, 132.84 33.05, 159.56 39.6" stroke="#2f9e44" stroke-width="2" fill="none"></path></g><g transform="translate(1159.082275390625 218.77182319644487) rotate(0 79.84543791530109 19.911865338874975)"><path d="M129.74 42.85 C136.63 41.71, 145 41.5, 159.56 39.6 M129.74 42.85 C141.37 41.87, 152.55 40.31, 159.56 39.6" stroke="#2f9e44" stroke-width="2" fill="none"></path></g><g transform="translate(1159.082275390625 218.77182319644487) rotate(0 79.84543791530109 19.911865338874975)"><path d="M134.62 22.92 C140.27 26.74, 147.42 31.47, 159.56 39.6 M134.62 22.92 C144.43 29.55, 153.75 35.62, 159.56 39.6" stroke="#2f9e44" stroke-width="2" fill="none"></path></g></g><mask></mask><g transform="translate(1192.986572265625 198.13174751285112) rotate(0 87.26991271972656 12.5)"><text x="0" y="0" font-family="Virgil, Segoe UI Emoji" font-size="20px" fill="#2f9e44" text-anchor="start" style="white-space: pre;" direction="ltr" dominant-baseline="text-before-edge">Pinchito approves!</text></g><g stroke-linecap="round" transform="translate(2667.504592937997 815.3486328125) rotate(0 83.19769287109375 26.32623291015625)"><path d="M13.16 0 C49.81 0.62, 84.72 0.88, 153.23 0 M13.16 0 C55.08 2.01, 97.35 1.89, 153.23 0 M153.23 0 C162.38 1.34, 166.13 4.95, 166.4 13.16 M153.23 0 C164.08 0.92, 165.93 6.07, 166.4 13.16 M166.4 13.16 C167.38 24.64, 165.36 33.2, 166.4 39.49 M166.4 13.16 C165.37 18.53, 166.96 24.97, 166.4 39.49 M166.4 39.49 C168.13 46.59, 163 53.41, 153.23 52.65 M166.4 39.49 C164.23 46.45, 162.06 52.34, 153.23 52.65 M153.23 52.65 C123.94 53.08, 91.91 53.4, 13.16 52.65 M153.23 52.65 C97.86 52.66, 42.66 51.83, 13.16 52.65 M13.16 52.65 C4.63 50.97, -0.94 47.66, 0 39.49 M13.16 52.65 C4.7 52.84, -0.03 50.41, 0 39.49 M0 39.49 C0.77 34.04, 1.17 29.58, 0 13.16 M0 39.49 C-0.75 31.73, -0.02 24.37, 0 13.16 M0 13.16 C-1 4.53, 6.12 -0.21, 13.16 0 M0 13.16 C2.14 6.44, 6.47 -2.29, 13.16 0" stroke="#1e1e1e" stroke-width="2" fill="none"></path></g><g transform="translate(2728.3623047299893 829.1748657226562) rotate(0 22.339981079101562 12.5)"><text x="22.339981079101562" y="0" font-family="Virgil, Segoe UI Emoji" font-size="20px" fill="#1e1e1e" text-anchor="middle" style="white-space: pre;" direction="ltr" dominant-baseline="text-before-edge">User</text></g><g stroke-linecap="round" transform="translate(2705.535842937997 180.90390014648438) rotate(0 86.62518310546875 41.50872802734375)"><path d="M20.75 0 C74.88 -2.82, 119.98 0.79, 152.5 0 C163.87 1.12, 174.6 9.41, 173.25 20.75 C169.49 30.06, 171.66 40.83, 173.25 62.26 C172.72 72.99, 163.65 85.52, 152.5 83.02 C112.95 84.41, 75.53 82.24, 20.75 83.02 C6.3 81.89, 0.55 75.57, 0 62.26 C-2.61 46.3, 0.42 34.04, 0 20.75 C-1.3 5.74, 4.31 -2.86, 20.75 0" stroke="none" stroke-width="0" fill="#ffec99"></path><path d="M20.75 0 C60.33 0.57, 97.99 -0.96, 152.5 0 M20.75 0 C70.03 -0.13, 118.8 -0.52, 152.5 0 M152.5 0 C168.14 0.8, 172.85 8.38, 173.25 20.75 M152.5 0 C167.73 -0.27, 171.58 8.09, 173.25 20.75 M173.25 20.75 C171.22 36.45, 171.16 52.07, 173.25 62.26 M173.25 20.75 C174.4 31.82, 174.03 44.95, 173.25 62.26 M173.25 62.26 C171.36 74.52, 166.37 82.75, 152.5 83.02 M173.25 62.26 C171.41 74.21, 166.51 84.75, 152.5 83.02 M152.5 83.02 C112.82 81.7, 69.48 83.9, 20.75 83.02 M152.5 83.02 C115.07 80.88, 76.93 81.42, 20.75 83.02 M20.75 83.02 C7.19 83.18, -0.03 77.97, 0 62.26 M20.75 83.02 C5.17 83.53, 1.18 77.05, 0 62.26 M0 62.26 C-0.75 50.31, 1.16 34.37, 0 20.75 M0 62.26 C-0.57 52.02, 0.79 41.53, 0 20.75 M0 20.75 C1.86 8.7, 8.73 -1.99, 20.75 0 M0 20.75 C2.05 5.19, 5.15 -0.38, 20.75 0" stroke="#1e1e1e" stroke-width="2" fill="none"></path></g><g transform="translate(2733.9610825009854 197.41262817382812) rotate(0 58.19994354248047 25)"><text x="58.19994354248047" y="0" font-family="Virgil, Segoe UI Emoji" font-size="20px" fill="#1e1e1e" text-anchor="middle" style="white-space: pre;" direction="ltr" dominant-baseline="text-before-edge">Turnomatic-</text><text x="58.19994354248047" y="25" font-family="Virgil, Segoe UI Emoji" font-size="20px" fill="#1e1e1e" text-anchor="middle" style="white-space: pre;" direction="ltr" dominant-baseline="text-before-edge">workerN</text></g><g stroke-linecap="round" transform="translate(2656.485549969247 660.5662231445312) rotate(0 112.4681396484375 24.749053955078125)"><path d="M12.37 0 C64.04 -1.38, 121.31 0.15, 212.56 0 C220.31 1.48, 224.14 4.15, 224.94 12.37 C223.94 20.12, 224.37 28.91, 224.94 37.12 C225.81 46.08, 219.13 49.08, 212.56 49.5 C147.99 46.98, 83.09 48.24, 12.37 49.5 C5.6 50.72, -0.01 43.55, 0 37.12 C1.92 31.77, 2.03 21.41, 0 12.37 C-1.47 1.91, 6.48 -1.6, 12.37 0" stroke="none" stroke-width="0" fill="#b2f2bb"></path><path d="M12.37 0 C68.28 -1.17, 124.84 0.34, 212.56 0 M12.37 0 C62.18 0.39, 111.96 0.74, 212.56 0 M212.56 0 C221.47 0.79, 225.78 3.31, 224.94 12.37 M212.56 0 C221.37 0.43, 223.88 3.24, 224.94 12.37 M224.94 12.37 C224.12 19.93, 225.66 27.48, 224.94 37.12 M224.94 12.37 C224.55 20.21, 225.09 27.86, 224.94 37.12 M224.94 37.12 C225.56 44.41, 220.93 48.68, 212.56 49.5 M224.94 37.12 C224.41 45.04, 220.97 49.59, 212.56 49.5 M212.56 49.5 C152.96 49.28, 93.33 49.03, 12.37 49.5 M212.56 49.5 C140.49 49.59, 67.54 49.05, 12.37 49.5 M12.37 49.5 C4.29 48.88, -0.49 45.44, 0 37.12 M12.37 49.5 C5.1 49.38, 1.05 46.37, 0 37.12 M0 37.12 C-0.61 26.71, -0.04 18.62, 0 12.37 M0 37.12 C-0.26 30.98, 0.23 25.1, 0 12.37 M0 12.37 C0.3 4.49, 4.8 -0.63, 12.37 0 M0 12.37 C-0.67 3.37, 3.09 -0.14, 12.37 0" stroke="#1e1e1e" stroke-width="2" fill="none"></path></g><g transform="translate(2708.353729290536 672.8152770996094) rotate(0 60.59996032714844 12.5)"><text x="60.59996032714844" y="0" font-family="Virgil, Segoe UI Emoji" font-size="20px" fill="#1e1e1e" text-anchor="middle" style="white-space: pre;" direction="ltr" dominant-baseline="text-before-edge">Balanceador</text></g><g stroke-linecap="round" transform="translate(2633.835647625497 10) rotate(0 128.78643798828125 36.850982666015625)"><path d="M18.43 0 C67.61 2.07, 117.03 0.31, 239.15 0 C251.34 -2.14, 256.96 5.01, 257.57 18.43 C258.7 31.03, 255.12 41.07, 257.57 55.28 C258.25 70.08, 250.13 72.52, 239.15 73.7 C190.72 74.55, 138.72 70.87, 18.43 73.7 C5.51 75.47, 2.47 70.47, 0 55.28 C-2.61 38.78, 2.72 26.23, 0 18.43 C-1.59 3.93, 9.26 2.63, 18.43 0" stroke="none" stroke-width="0" fill="#a5d8ff"></path><path d="M18.43 0 C67.77 -0.99, 117.29 -2.64, 239.15 0 M18.43 0 C64.52 0.95, 110.18 -0.47, 239.15 0 M239.15 0 C252.43 0.76, 255.69 4.56, 257.57 18.43 M239.15 0 C251.48 -0.31, 255.73 4.25, 257.57 18.43 M257.57 18.43 C258.14 30.4, 259.79 39.36, 257.57 55.28 M257.57 18.43 C258.3 28.91, 257.78 40.53, 257.57 55.28 M257.57 55.28 C256.64 66.96, 251.71 73.87, 239.15 73.7 M257.57 55.28 C257.54 69.71, 249.68 74.22, 239.15 73.7 M239.15 73.7 C162.68 75.77, 83.65 75.38, 18.43 73.7 M239.15 73.7 C157.48 72.17, 75.09 72.78, 18.43 73.7 M18.43 73.7 C7.87 73.5, 1.86 69.34, 0 55.28 M18.43 73.7 C8.23 71.42, 2.05 65.83, 0 55.28 M0 55.28 C-1.21 48.26, 1.95 38.06, 0 18.43 M0 55.28 C0.08 46.87, 0.47 37.07, 0 18.43 M0 18.43 C-1.19 4.8, 4.3 -0.25, 18.43 0 M0 18.43 C-0.73 6.51, 5.8 -1.98, 18.43 0" stroke="#1971c2" stroke-width="2" fill="none"></path></g><g transform="translate(2737.062110943368 34.350982666015625) rotate(0 25.559974670410156 12.5)"><text x="25.559974670410156" y="0" font-family="Virgil, Segoe UI Emoji" font-size="20px" fill="#1971c2" text-anchor="middle" style="white-space: pre;" direction="ltr" dominant-baseline="text-before-edge">Redis</text></g><g stroke-linecap="round"><g transform="translate(2759.605423016122 815.1377563476562) rotate(0 -0.2935488229140901 -49.98940621743964)"><path d="M-0.06 -0.14 C-0.2 -16.8, -0.68 -83.45, -0.76 -100.09 M0.17 0.11 C0.07 -16.51, -0.37 -83.2, -0.5 -99.91" stroke="#1e1e1e" stroke-width="2" fill="none"></path></g><g transform="translate(2759.605423016122 815.1377563476562) rotate(0 -0.2935488229140901 -49.98940621743964)"><path d="M9.96 -71.79 C6.04 -81.96, 2.59 -91.41, -0.5 -99.91 M9.96 -71.79 C6.02 -82.45, 1.83 -93.32, -0.5 -99.91" stroke="#1e1e1e" stroke-width="2" fill="none"></path></g><g transform="translate(2759.605423016122 815.1377563476562) rotate(0 -0.2935488229140901 -49.98940621743964)"><path d="M-10.56 -71.65 C-7.25 -81.86, -3.47 -91.36, -0.5 -99.91 M-10.56 -71.65 C-6.69 -82.34, -3.07 -93.26, -0.5 -99.91" stroke="#1e1e1e" stroke-width="2" fill="none"></path></g></g><mask></mask><g stroke-linecap="round" transform="translate(2522.5345001645596 152.92965698242188) rotate(0 245.54296875 67.47215270996094)"><path d="M32 0 C141.51 2.73, 252.13 2.93, 459.09 0 M32 0 C123.85 -1.26, 216.69 -0.92, 459.09 0 M459.09 0 C478.82 -1.65, 491.24 12.18, 491.09 32 M459.09 0 C480.79 0.33, 491.82 12.9, 491.09 32 M491.09 32 C490.87 48.4, 489.2 62.5, 491.09 102.94 M491.09 32 C490.89 47.4, 490.74 63.57, 491.09 102.94 M491.09 102.94 C489.57 124.73, 481.44 135.77, 459.09 134.94 M491.09 102.94 C491.6 125.69, 482.59 134.37, 459.09 134.94 M459.09 134.94 C299.7 133.88, 140.73 133.18, 32 134.94 M459.09 134.94 C328.38 135.18, 197.18 134.2, 32 134.94 M32 134.94 C12.45 133.44, -1.54 123.95, 0 102.94 M32 134.94 C12.62 133.48, 1.39 126.45, 0 102.94 M0 102.94 C-0.93 85.03, 1.19 67.25, 0 32 M0 102.94 C-0.5 86.15, 0.1 69.77, 0 32 M0 32 C-0.3 8.94, 9.18 1.39, 32 0 M0 32 C-0.19 10.22, 11.98 -0.71, 32 0" stroke="#1e1e1e" stroke-width="2" fill="none"></path></g><g stroke-linecap="round"><g transform="translate(2746.9658891858294 656.1572875976562) rotate(0 0.9197852808845255 -43.061532667611914)"><path d="M0.1 0.12 C0.44 -14.25, 1.58 -71.88, 1.87 -86.24 M-0.03 0.05 C0.31 -14.3, 1.52 -71.72, 1.81 -86.12" stroke="#1e1e1e" stroke-width="2" fill="none"></path></g><g transform="translate(2746.9658891858294 656.1572875976562) rotate(0 0.9197852808845255 -43.061532667611914)"><path d="M11.48 -57.72 C9.7 -63.4, 7.2 -69.45, 1.81 -86.12 M11.48 -57.72 C8.26 -67.35, 4.87 -77.05, 1.81 -86.12" stroke="#1e1e1e" stroke-width="2" fill="none"></path></g><g transform="translate(2746.9658891858294 656.1572875976562) rotate(0 0.9197852808845255 -43.061532667611914)"><path d="M-9.03 -58.15 C-6.52 -63.76, -4.73 -69.72, 1.81 -86.12 M-9.03 -58.15 C-5.32 -67.61, -1.78 -77.17, 1.81 -86.12" stroke="#1e1e1e" stroke-width="2" fill="none"></path></g></g><mask></mask><g stroke-linecap="round"><g transform="translate(2762.5571740244986 151.9296569824221) rotate(0 -5.458768980917739 -35.04039244003433)"><path d="M0.15 -0.15 C-1.7 -11.83, -9.08 -58.29, -10.98 -69.96 M0.02 0.16 C-1.86 -11.59, -9.25 -58.54, -11.07 -70.24" stroke="#1e1e1e" stroke-width="2" fill="none"></path></g><g transform="translate(2762.5571740244986 151.9296569824221) rotate(0 -5.458768980917739 -35.04039244003433)"><path d="M3.43 -43.97 C-2.22 -53.45, -7.15 -63.6, -11.07 -70.24 M3.43 -43.97 C0.09 -49.92, -2.97 -55.46, -11.07 -70.24" stroke="#1e1e1e" stroke-width="2" fill="none"></path></g><g transform="translate(2762.5571740244986 151.9296569824221) rotate(0 -5.458768980917739 -35.04039244003433)"><path d="M-16.84 -40.8 C-15.04 -51.47, -12.51 -62.79, -11.07 -70.24 M-16.84 -40.8 C-15.7 -47.45, -14.28 -53.69, -11.07 -70.24" stroke="#1e1e1e" stroke-width="2" fill="none"></path></g></g><mask></mask><g stroke-linecap="round"><g transform="translate(2797.3224377003676 88.41583251953125) rotate(0 0.5470772819053309 31.62863379555741)"><path d="M0.07 0.06 C0.2 10.61, 0.74 52.64, 0.9 63.17 M-0.07 -0.04 C0.09 10.53, 0.99 52.72, 1.16 63.3" stroke="#1e1e1e" stroke-width="2" fill="none"></path></g><g transform="translate(2797.3224377003676 88.41583251953125) rotate(0 0.5470772819053309 31.62863379555741)"><path d="M-9.63 35.31 C-5.38 45.85, -1.55 56.96, 1.16 63.3 M-9.63 35.31 C-6.56 43.45, -3.46 51.38, 1.16 63.3" stroke="#1e1e1e" stroke-width="2" fill="none"></path></g><g transform="translate(2797.3224377003676 88.41583251953125) rotate(0 0.5470772819053309 31.62863379555741)"><path d="M10.89 34.92 C7.2 45.63, 3.1 56.89, 1.16 63.3 M10.89 34.92 C8.08 43.15, 5.3 51.19, 1.16 63.3" stroke="#1e1e1e" stroke-width="2" fill="none"></path></g></g><mask></mask><g stroke-linecap="round"><g transform="translate(2804.814871310528 566.2150878906252) rotate(0 -2.019821140049089 44.695567500578875)"><path d="M-0.15 -0.12 C-0.49 2.72, -1.32 2.17, -1.98 17.09 C-2.64 32.01, -3.77 77.32, -4.1 89.41 M0.06 0.15 C-0.31 3.01, -1.46 2.38, -2.1 17.28 C-2.74 32.17, -3.49 77.5, -3.79 89.51" stroke="#1e1e1e" stroke-width="2" fill="none"></path></g><g transform="translate(2804.814871310528 566.2150878906252) rotate(0 -2.019821140049089 44.695567500578875)"><path d="M-13.46 61.12 C-10.3 71.07, -6.72 80.75, -3.79 89.51 M-13.46 61.12 C-11.33 67.31, -9.2 73.62, -3.79 89.51" stroke="#1e1e1e" stroke-width="2" fill="none"></path></g><g transform="translate(2804.814871310528 566.2150878906252) rotate(0 -2.019821140049089 44.695567500578875)"><path d="M7.05 61.54 C3.04 71.32, -0.56 80.85, -3.79 89.51 M7.05 61.54 C4.72 67.67, 2.38 73.88, -3.79 89.51" stroke="#1e1e1e" stroke-width="2" fill="none"></path></g></g><mask></mask><g stroke-linecap="round"><g transform="translate(2802.166946453622 709.265625) rotate(0 -5.107765612536014 50.232201605984926)"><path d="M0 -0.02 C-1.67 16.75, -8.54 83.7, -10.22 100.5 M-0.2 -0.18 C-1.81 16.62, -8.24 83.87, -9.9 100.65" stroke="#1e1e1e" stroke-width="2" fill="none"></path></g><g transform="translate(2802.166946453622 709.265625) rotate(0 -5.107765612536014 50.232201605984926)"><path d="M-17.39 71.6 C-15.94 77.31, -14.63 83.57, -9.9 100.65 M-17.39 71.6 C-14.52 82.67, -11.91 93.43, -9.9 100.65" stroke="#1e1e1e" stroke-width="2" fill="none"></path></g><g transform="translate(2802.166946453622 709.265625) rotate(0 -5.107765612536014 50.232201605984926)"><path d="M3.03 73.58 C0.29 78.88, -2.6 84.74, -9.9 100.65 M3.03 73.58 C-1.77 83.91, -6.82 93.93, -9.9 100.65" stroke="#1e1e1e" stroke-width="2" fill="none"></path></g></g><mask></mask><g stroke-linecap="round"><g transform="translate(3340.575759930185 112.276611328125) rotate(0 -251.59086965912934 0.6155366936140965)"><path d="M-0.12 -0.12 C-83.98 0.11, -419.32 1.12, -503.16 1.35 M0.09 0.14 C-83.79 0.33, -419.39 0.93, -503.27 1.15" stroke="#e03131" stroke-width="2" fill="none"></path></g><g transform="translate(3340.575759930185 112.276611328125) rotate(0 -251.59086965912934 0.6155366936140965)"><path d="M-475.1 -9.17 C-483.86 -6.06, -491.91 -2.92, -503.27 1.15 M-475.1 -9.17 C-484.08 -5.87, -492.77 -2.67, -503.27 1.15" stroke="#e03131" stroke-width="2" fill="none"></path></g><g transform="translate(3340.575759930185 112.276611328125) rotate(0 -251.59086965912934 0.6155366936140965)"><path d="M-475.06 11.35 C-483.82 8.26, -491.89 5.2, -503.27 1.15 M-475.06 11.35 C-484.06 8.2, -492.76 4.96, -503.27 1.15" stroke="#e03131" stroke-width="2" fill="none"></path></g></g><mask></mask><g transform="translate(3042.189163250497 92.903076171875) rotate(0 201.63984680175804 12.5)"><text x="0" y="0" font-family="Virgil, Segoe UI Emoji" font-size="20px" fill="#e03131" text-anchor="start" style="white-space: pre;" direction="ltr" dominant-baseline="text-before-edge">Limite a Escala vertical (No bloqueante)</text></g><g stroke-linecap="round" transform="translate(2657.743982253485 317.57989501953125) rotate(0 128.78643798828125 36.850982666015625)"><path d="M18.43 0 C87.89 -0.23, 152.87 -0.72, 239.15 0 C251.95 2.96, 256.07 6.35, 257.57 18.43 C256.39 30.13, 256.22 37.84, 257.57 55.28 C254.14 68.63, 254.19 74.15, 239.15 73.7 C182.34 75.72, 125.32 73.86, 18.43 73.7 C2.75 74.58, -2.41 66.25, 0 55.28 C-0.13 44.43, -3.69 34.83, 0 18.43 C-2.77 7.43, 7.57 2.79, 18.43 0" stroke="none" stroke-width="0" fill="#a5d8ff"></path><path d="M18.43 0 C80.42 3.17, 138.32 2.47, 239.15 0 M18.43 0 C63.4 -0.59, 109.06 -1.74, 239.15 0 M239.15 0 C249.58 -1.52, 258.65 6.48, 257.57 18.43 M239.15 0 C250.4 2.12, 258.29 7.19, 257.57 18.43 M257.57 18.43 C256.03 28.56, 259.86 39.16, 257.57 55.28 M257.57 18.43 C256.88 31.83, 258.27 45.25, 257.57 55.28 M257.57 55.28 C259.1 67.08, 251.14 71.83, 239.15 73.7 M257.57 55.28 C257 68.91, 250.1 74.87, 239.15 73.7 M239.15 73.7 C162.34 72.92, 86.27 71.36, 18.43 73.7 M239.15 73.7 C191.14 72.25, 144.86 72.73, 18.43 73.7 M18.43 73.7 C7.16 73.23, 1.31 67.31, 0 55.28 M18.43 73.7 C6.52 75.17, -1.48 68.38, 0 55.28 M0 55.28 C-1.23 42.41, 1.15 32.12, 0 18.43 M0 55.28 C0.15 45.84, -0.28 36.55, 0 18.43 M0 18.43 C-1.64 5.02, 5.55 0.03, 18.43 0 M0 18.43 C2.24 7.68, 6.71 -0.57, 18.43 0" stroke="#1971c2" stroke-width="2" fill="none"></path></g><g transform="translate(2766.040430007391 341.9308776855469) rotate(0 20.489990234375 12.5)"><text x="20.489990234375" y="0" font-family="Virgil, Segoe UI Emoji" font-size="20px" fill="#1971c2" text-anchor="middle" style="white-space: pre;" direction="ltr" dominant-baseline="text-before-edge">BUS</text></g><g stroke-linecap="round" transform="translate(2401.953271804266 448.2820281982422) rotate(0 86.62518310546875 41.50872802734375)"><path d="M20.75 0 C70.03 -1.63, 124.47 1.91, 152.5 0 C167.99 -2.63, 171.92 3.58, 173.25 20.75 C171.9 27.24, 176.24 42.73, 173.25 62.26 C172.14 72.83, 168.75 83.19, 152.5 83.02 C111.02 85.48, 74.7 83.16, 20.75 83.02 C5.82 79.96, 1.3 78.57, 0 62.26 C2.98 52.57, -0.27 41.66, 0 20.75 C0.21 8.67, 6.51 -2.71, 20.75 0" stroke="none" stroke-width="0" fill="#ffec99"></path><path d="M20.75 0 C69.54 1.27, 121.37 -0.55, 152.5 0 M20.75 0 C74.13 0.48, 126.9 0.43, 152.5 0 M152.5 0 C165.95 -0.73, 172.24 6.81, 173.25 20.75 M152.5 0 C164.7 -0.65, 172.9 7.27, 173.25 20.75 M173.25 20.75 C174.09 36.96, 173.32 51.79, 173.25 62.26 M173.25 20.75 C173.2 29.37, 172.7 38.45, 173.25 62.26 M173.25 62.26 C174.23 77.35, 167.5 84.76, 152.5 83.02 M173.25 62.26 C171.68 75.93, 164.92 81.75, 152.5 83.02 M152.5 83.02 C101.52 82.71, 46.8 80.42, 20.75 83.02 M152.5 83.02 C101.91 81.23, 51.78 82.45, 20.75 83.02 M20.75 83.02 C5.3 83.48, 1.16 75.01, 0 62.26 M20.75 83.02 C5.86 81.38, 0.89 75.49, 0 62.26 M0 62.26 C-1.13 46.84, 0.17 32.89, 0 20.75 M0 62.26 C0.21 52.73, -0.08 41.98, 0 20.75 M0 20.75 C0.1 8.37, 8.04 1.33, 20.75 0 M0 20.75 C1.1 5.57, 7.73 0.56, 20.75 0" stroke="#1e1e1e" stroke-width="2" fill="none"></path></g><g transform="translate(2443.3385028223324 477.29075622558594) rotate(0 45.239952087402344 12.5)"><text x="45.239952087402344" y="0" font-family="Virgil, Segoe UI Emoji" font-size="20px" fill="#1e1e1e" text-anchor="middle" style="white-space: pre;" direction="ltr" dominant-baseline="text-before-edge">ServidorN</text></g><g stroke-linecap="round" transform="translate(2615.4255008081723 444.4683074951172) rotate(0 86.62518310546875 41.50872802734375)"><path d="M20.75 0 C55.27 -3.76, 85.14 -4.47, 152.5 0 C163.55 0.82, 176.47 5.39, 173.25 20.75 C172.73 26.75, 176.25 39.45, 173.25 62.26 C173.07 75.57, 166.21 80.4, 152.5 83.02 C102.56 80.11, 56.11 85.63, 20.75 83.02 C4.36 84.09, -2.49 79.31, 0 62.26 C0.22 51.79, -0.39 35.1, 0 20.75 C3.23 5.65, 8.73 3.48, 20.75 0" stroke="none" stroke-width="0" fill="#ffec99"></path><path d="M20.75 0 C71.15 1.85, 117.11 1.9, 152.5 0 M20.75 0 C62.39 -0.53, 103.91 -0.22, 152.5 0 M152.5 0 C164.92 -0.57, 172.95 7.22, 173.25 20.75 M152.5 0 C167.6 -1.89, 172.97 8.28, 173.25 20.75 M173.25 20.75 C171.4 35.82, 172.16 51.78, 173.25 62.26 M173.25 20.75 C173.55 34.55, 173.64 47.97, 173.25 62.26 M173.25 62.26 C171.89 75.95, 165.11 81.92, 152.5 83.02 M173.25 62.26 C175.55 75.02, 164.55 84.97, 152.5 83.02 M152.5 83.02 C109.88 81.04, 62.35 80.54, 20.75 83.02 M152.5 83.02 C120.17 84.04, 90.05 83.27, 20.75 83.02 M20.75 83.02 C6 81.59, 0.77 75.57, 0 62.26 M20.75 83.02 C8.63 82.92, -0.26 74.78, 0 62.26 M0 62.26 C-1.13 50.68, 1.73 37.73, 0 20.75 M0 62.26 C-0.01 47.92, 0.5 32.79, 0 20.75 M0 20.75 C0.95 5.75, 7.62 0.49, 20.75 0 M0 20.75 C1.88 5.29, 6.73 -0.63, 20.75 0" stroke="#1e1e1e" stroke-width="2" fill="none"></path></g><g transform="translate(2656.130731521063 473.47703552246094) rotate(0 45.919952392578125 12.5)"><text x="45.919952392578125" y="0" font-family="Virgil, Segoe UI Emoji" font-size="20px" fill="#1e1e1e" text-anchor="middle" style="white-space: pre;" direction="ltr" dominant-baseline="text-before-edge">Servidor2</text></g><g stroke-linecap="round" transform="translate(2821.2841433862973 445.26292419433594) rotate(0 86.62518310546875 41.50872802734375)"><path d="M20.75 0 C47.89 3.02, 83.8 0.67, 152.5 0 C163.57 2.82, 176.72 5.81, 173.25 20.75 C173.57 28.9, 173.63 35.5, 173.25 62.26 C175.8 76.03, 166.55 81.92, 152.5 83.02 C121.58 85.71, 93.31 87.85, 20.75 83.02 C6.72 82.96, -1.61 76.31, 0 62.26 C3.32 46.53, 1.89 36.8, 0 20.75 C1.61 3.66, 7.48 2.55, 20.75 0" stroke="none" stroke-width="0" fill="#ffec99"></path><path d="M20.75 0 C70.76 0.91, 120.31 -1.43, 152.5 0 M20.75 0 C54.78 -0.21, 90.06 0.22, 152.5 0 M152.5 0 C167.44 -1.64, 173.01 8.1, 173.25 20.75 M152.5 0 C168.01 0.48, 175.03 4.69, 173.25 20.75 M173.25 20.75 C173.35 31.41, 174.63 44.91, 173.25 62.26 M173.25 20.75 C172.81 35.73, 172.88 50.3, 173.25 62.26 M173.25 62.26 C175.25 75.16, 164.79 84.72, 152.5 83.02 M173.25 62.26 C174.06 75.7, 164.52 84.82, 152.5 83.02 M152.5 83.02 C117.94 80.08, 87.02 80.45, 20.75 83.02 M152.5 83.02 C109.45 81.59, 67.72 82.03, 20.75 83.02 M20.75 83.02 C8.41 82.94, -0.23 74.96, 0 62.26 M20.75 83.02 C7.06 83.19, 1.99 74.83, 0 62.26 M0 62.26 C0.89 47.78, -0.27 32.81, 0 20.75 M0 62.26 C0.25 46.21, 0.12 31.57, 0 20.75 M0 20.75 C1.63 5.51, 6.76 -0.55, 20.75 0 M0 20.75 C-1.16 8.95, 8.02 1.06, 20.75 0" stroke="#1e1e1e" stroke-width="2" fill="none"></path></g><g transform="translate(2862.2993716577816 474.2716522216797) rotate(0 45.609954833984375 12.5)"><text x="45.609954833984375" y="0" font-family="Virgil, Segoe UI Emoji" font-size="20px" fill="#1e1e1e" text-anchor="middle" style="white-space: pre;" direction="ltr" dominant-baseline="text-before-edge">Servidor3</text></g><g stroke-linecap="round" transform="translate(3019.0387820581723 445.82456970214844) rotate(0 86.62518310546875 41.50872802734375)"><path d="M20.75 0 C60.53 3.82, 109.3 -0.1, 152.5 0 C163.06 2.42, 173.42 6.74, 173.25 20.75 C175.77 32.52, 173.45 43.34, 173.25 62.26 C170.2 77.4, 168.8 80.46, 152.5 83.02 C108.87 85.08, 64.02 85.34, 20.75 83.02 C8.67 82.61, -2.71 79.33, 0 62.26 C1.24 48.01, 0.19 42.82, 0 20.75 C-3.33 8.39, 6.94 3.21, 20.75 0" stroke="none" stroke-width="0" fill="#ffec99"></path><path d="M20.75 0 C72.44 -0.76, 125.47 -1.17, 152.5 0 M20.75 0 C57.1 -1.02, 92.21 0.39, 152.5 0 M152.5 0 C167.79 0.41, 174.79 4.98, 173.25 20.75 M152.5 0 C165.85 -1.36, 173.32 7.32, 173.25 20.75 M173.25 20.75 C174.84 32.44, 175.33 40.43, 173.25 62.26 M173.25 20.75 C173.99 32.43, 172.22 45.89, 173.25 62.26 M173.25 62.26 C173.96 75.75, 164.76 84.59, 152.5 83.02 M173.25 62.26 C172.17 74.05, 164.67 81.62, 152.5 83.02 M152.5 83.02 C126.55 83.11, 98.58 81.03, 20.75 83.02 M152.5 83.02 C123.12 82.63, 92.13 82.1, 20.75 83.02 M20.75 83.02 C7.04 83.17, 1.73 75, 0 62.26 M20.75 83.02 C8.21 85.04, 1.01 77.55, 0 62.26 M0 62.26 C1.43 50.31, 1.31 37.08, 0 20.75 M0 62.26 C0.67 51.53, -0.23 41.94, 0 20.75 M0 20.75 C-1.01 8.69, 7.87 0.92, 20.75 0 M0 20.75 C-1.68 6.07, 4.78 -1.77, 20.75 0" stroke="#1e1e1e" stroke-width="2" fill="none"></path></g><g transform="translate(3060.464013991766 474.8332977294922) rotate(0 45.199951171875 12.5)"><text x="45.199951171875" y="0" font-family="Virgil, Segoe UI Emoji" font-size="20px" fill="#1e1e1e" text-anchor="middle" style="white-space: pre;" direction="ltr" dominant-baseline="text-before-edge">Servidor4</text></g><g stroke-linecap="round" transform="translate(2347.0610598902035 430.27186584472656) rotate(0 460.5771484375002 67.47215270996094)"><path d="M32 0 C245.81 2.3, 460.2 2.87, 889.15 0 M32 0 C219.04 -1.94, 405.8 -2.41, 889.15 0 M889.15 0 C910.07 -1.18, 921.22 11.01, 921.15 32 M889.15 0 C909.42 1.87, 922.29 12.11, 921.15 32 M921.15 32 C921.62 56.19, 920.67 84.83, 921.15 102.94 M921.15 32 C920.96 49.79, 919.82 68.72, 921.15 102.94 M921.15 102.94 C920.22 122.49, 909.04 133.73, 889.15 134.94 M921.15 102.94 C918.87 125.66, 908.62 135.48, 889.15 134.94 M889.15 134.94 C581.74 133.67, 275.26 133.96, 32 134.94 M889.15 134.94 C635.55 133.01, 382.23 132.76, 32 134.94 M32 134.94 C11.79 136.71, 0.88 125.54, 0 102.94 M32 134.94 C11.01 135.05, 0.12 125.95, 0 102.94 M0 102.94 C-1.64 78.4, 0.02 54.08, 0 32 M0 102.94 C-0.45 87.56, 0.53 70.86, 0 32 M0 32 C-1.46 9.93, 8.81 -1.54, 32 0 M0 32 C0.53 12.72, 9.69 -1.77, 32 0" stroke="#1e1e1e" stroke-width="2" fill="none"></path></g><g stroke-linecap="round"><g transform="translate(2765.7834719995785 317.5716247558594) rotate(0 1.1723130381683404 -27.286187005990868)"><path d="M-0.12 0.14 C0.25 -8.98, 1.76 -45.57, 2.19 -54.71 M0.09 0.08 C0.52 -9.01, 2.08 -45.41, 2.47 -54.51" stroke="#1e1e1e" stroke-width="2" fill="none"></path></g><g transform="translate(2765.7834719995785 317.5716247558594) rotate(0 1.1723130381683404 -27.286187005990868)"><path d="M10.73 -28.39 C8.85 -35.44, 6.47 -41.76, 2.47 -54.51 M10.73 -28.39 C8.16 -36.67, 5.29 -45.24, 2.47 -54.51" stroke="#1e1e1e" stroke-width="2" fill="none"></path></g><g transform="translate(2765.7834719995785 317.5716247558594) rotate(0 1.1723130381683404 -27.286187005990868)"><path d="M-7.99 -29.19 C-5 -36.01, -2.51 -42.12, 2.47 -54.51 M-7.99 -29.19 C-4.52 -37.2, -1.36 -45.51, 2.47 -54.51" stroke="#1e1e1e" stroke-width="2" fill="none"></path></g></g><mask></mask><g stroke-linecap="round"><g transform="translate(2830.879297194891 387.7050476074219) rotate(0 1.0217551781672682 25.44929423332539)"><path d="M-0.04 0.14 C0.32 8.59, 1.74 42.22, 2.08 50.65 M0.22 0.07 C0.55 8.56, 1.58 42.36, 1.93 50.82" stroke="#1e1e1e" stroke-width="2" fill="none"></path></g><g transform="translate(2830.879297194891 387.7050476074219) rotate(0 1.0217551781672682 25.44929423332539)"><path d="M-7.58 27.31 C-4.89 33.21, -2.77 39.16, 1.93 50.82 M-7.58 27.31 C-4.75 34.79, -1.58 41.88, 1.93 50.82" stroke="#1e1e1e" stroke-width="2" fill="none"></path></g><g transform="translate(2830.879297194891 387.7050476074219) rotate(0 1.0217551781672682 25.44929423332539)"><path d="M9.76 26.7 C8 32.75, 5.67 38.85, 1.93 50.82 M9.76 26.7 C7.16 34.38, 4.92 41.66, 1.93 50.82" stroke="#1e1e1e" stroke-width="2" fill="none"></path></g></g><mask></mask><g stroke-linecap="round"><g transform="translate(2816.251123366766 261.2750549316406) rotate(0 -1.0429198769925279 28.29628793078021)"><path d="M-0.03 0.09 C-0.39 9.5, -1.74 47.17, -2.06 56.58 M-0.22 0.01 C-0.54 9.37, -1.47 47, -1.78 56.39" stroke="#1e1e1e" stroke-width="2" fill="none"></path></g><g transform="translate(2816.251123366766 261.2750549316406) rotate(0 -1.0429198769925279 28.29628793078021)"><path d="M-10.69 29.58 C-7.2 39.23, -3.85 49.29, -1.78 56.39 M-10.69 29.58 C-7.4 39.8, -3.91 49.76, -1.78 56.39" stroke="#1e1e1e" stroke-width="2" fill="none"></path></g><g transform="translate(2816.251123366766 261.2750549316406) rotate(0 -1.0429198769925279 28.29628793078021)"><path d="M8.63 30.13 C5 39.57, 1.25 49.43, -1.78 56.39 M8.63 30.13 C4.65 40.12, 0.87 49.87, -1.78 56.39" stroke="#1e1e1e" stroke-width="2" fill="none"></path></g></g><mask></mask><g stroke-linecap="round"><g transform="translate(2765.335596023016 429.3550109863281) rotate(0 0.41164283542912017 -20.519265789774806)"><path d="M0.04 0.01 C0.22 -6.83, 0.81 -34.21, 0.95 -41.05 M-0.12 -0.11 C0.06 -6.94, 0.73 -34.14, 0.88 -40.94" stroke="#1e1e1e" stroke-width="2" fill="none"></path></g><g transform="translate(2765.335596023016 429.3550109863281) rotate(0 0.41164283542912017 -20.519265789774806)"><path d="M7.42 -21.56 C6.08 -25.42, 4.4 -29.67, 0.88 -40.94 M7.42 -21.56 C5.9 -25.71, 4.67 -30.02, 0.88 -40.94" stroke="#1e1e1e" stroke-width="2" fill="none"></path></g><g transform="translate(2765.335596023016 429.3550109863281) rotate(0 0.41164283542912017 -20.519265789774806)"><path d="M-6.57 -21.88 C-4.98 -25.69, -3.74 -29.87, 0.88 -40.94 M-6.57 -21.88 C-5 -25.96, -3.15 -30.2, 0.88 -40.94" stroke="#1e1e1e" stroke-width="2" fill="none"></path></g></g><mask></mask><g stroke-linecap="round"><g transform="translate(2284.4209231714535 164.048095703125) rotate(0 -2.3520964144474874 211.90935150386235)"><path d="M-0.08 0.03 C-0.89 70.64, -3.98 353.1, -4.73 423.72 M0.17 -0.1 C-0.67 70.53, -4.06 353.25, -4.87 423.92" stroke="#1e1e1e" stroke-width="2" fill="none"></path></g></g><mask></mask><g stroke-linecap="round"><g transform="translate(2284.6350344995785 163.84835815429688) rotate(0 28.75544808300151 -13.489224173850829)"><path d="M-0.22 0.18 C9.31 -4.38, 47.7 -22.65, 57.28 -27.15 M0.11 0.05 C9.7 -4.47, 48.12 -22.34, 57.73 -26.89" stroke="#1e1e1e" stroke-width="2" fill="none"></path></g></g><mask></mask><g stroke-linecap="round"><g transform="translate(2281.439599929266 587.5161437988281) rotate(0 21.531105236403164 12.682876743090276)"><path d="M-0.02 0.1 C7.21 4.3, 36.13 21.23, 43.37 25.42 M-0.31 -0.06 C6.89 4.06, 35.93 20.8, 43.21 25.05" stroke="#1e1e1e" stroke-width="2" fill="none"></path></g></g><mask></mask><g transform="translate(2017.5923098902035 283.2644958496094) rotate(0 126.49990844726562 62.5)"><text x="0" y="0" font-family="Virgil, Segoe UI Emoji" font-size="20px" fill="#1e1e1e" text-anchor="start" style="white-space: pre;" direction="ltr" dominant-baseline="text-before-edge">La peticion pasa de http</text><text x="0" y="25" font-family="Virgil, Segoe UI Emoji" font-size="20px" fill="#1e1e1e" text-anchor="start" style="white-space: pre;" direction="ltr" dominant-baseline="text-before-edge">a bus. Y se cuelga hasta</text><text x="0" y="50" font-family="Virgil, Segoe UI Emoji" font-size="20px" fill="#1e1e1e" text-anchor="start" style="white-space: pre;" direction="ltr" dominant-baseline="text-before-edge">que se asigna el valor</text><text x="0" y="75" font-family="Virgil, Segoe UI Emoji" font-size="20px" fill="#1e1e1e" text-anchor="start" style="white-space: pre;" direction="ltr" dominant-baseline="text-before-edge">y el mensaje vuelve</text><text x="0" y="100" font-family="Virgil, Segoe UI Emoji" font-size="20px" fill="#1e1e1e" text-anchor="start" style="white-space: pre;" direction="ltr" dominant-baseline="text-before-edge">con el dato.</text></g></svg>